<svg width="229" height="70" viewBox="0 0 229 70" fill="none" xmlns="http://www.w3.org/2000/svg">
<path d="M36.4104 16.84C37.7544 16.84 38.8744 17.272 39.7704 18.136C40.6664 19 41.1144 20.168 41.1144 21.64C41.1144 23.304 40.6184 24.648 39.6264 25.672C38.6344 26.696 37.4504 27.208 36.0744 27.208C35.1784 27.208 34.4104 27.048 33.7704 26.728C33.1304 26.408 32.5224 25.896 31.9464 25.192L27.8184 28.648L32.4744 42.424C32.7624 43.224 33.0664 43.864 33.3864 44.344C33.7384 44.824 34.1544 45.304 34.6344 45.784C34.9864 46.136 35.2264 46.424 35.3544 46.648C35.5144 46.84 35.5944 47.08 35.5944 47.368C35.5944 47.88 35.3544 48.28 34.8744 48.568C34.4264 48.856 33.6264 49 32.4744 49H26.1864C24.6184 49 23.4504 48.664 22.6824 47.992C21.9464 47.288 21.3384 46.136 20.8584 44.536L18.4584 36.472L17.0664 37.624L15.4824 43.336C15.3544 43.752 15.2904 44.152 15.2904 44.536C15.2904 44.92 15.3384 45.24 15.4344 45.496C15.5624 45.752 15.7384 46.024 15.9624 46.312C16.2504 46.728 16.3944 47.064 16.3944 47.32C16.3944 47.384 16.3624 47.544 16.2984 47.8C16.1704 48.248 15.8824 48.568 15.4344 48.76C14.9864 48.92 14.3144 49 13.4184 49H2.13838C1.46638 49 0.954376 48.888 0.602376 48.664C0.218376 48.44 0.0263759 48.136 0.0263759 47.752C0.0263759 47.56 0.0743759 47.352 0.170376 47.128C0.298376 46.776 0.506376 46.504 0.794376 46.312C1.08238 46.12 1.25838 46.008 1.32238 45.976C1.83438 45.656 2.25038 45.336 2.57038 45.016C2.89038 44.664 3.16238 44.104 3.38638 43.336L9.24238 22.648C9.37038 22.232 9.43438 21.832 9.43438 21.448C9.43438 21.096 9.37038 20.808 9.24238 20.584C9.14638 20.328 9.00238 20.04 8.81038 19.72C8.52238 19.304 8.37838 18.968 8.37838 18.712C8.37838 18.616 8.41038 18.44 8.47438 18.184C8.60238 17.768 8.87438 17.48 9.29038 17.32C9.73838 17.128 10.4104 17.032 11.3064 17.032H22.5864C23.2584 17.032 23.7704 17.144 24.1224 17.368C24.5064 17.56 24.6984 17.848 24.6984 18.232C24.6984 18.392 24.6504 18.6 24.5544 18.856C24.4584 19.08 24.3144 19.288 24.1224 19.48C23.9624 19.64 23.8024 19.768 23.6424 19.864C23.5144 19.928 23.4184 19.992 23.3544 20.056C22.8424 20.344 22.4264 20.664 22.1064 21.016C21.7864 21.368 21.5144 21.912 21.2904 22.648L19.2744 29.8L31.9944 18.808C32.8264 18.104 33.5784 17.608 34.2504 17.32C34.9224 17 35.6424 16.84 36.4104 16.84ZM52.1596 23.608C54.0156 23.608 55.3756 23.96 56.2396 24.664C57.1036 25.368 57.5356 26.328 57.5356 27.544C57.5356 28.28 57.4236 28.984 57.1996 29.656L52.7836 44.008C52.6876 44.392 52.6396 44.728 52.6396 45.016C52.6396 45.432 52.7196 45.768 52.8796 46.024C53.0396 46.248 53.2636 46.472 53.5516 46.696C53.7756 46.92 53.9356 47.112 54.0316 47.272C54.1276 47.4 54.1436 47.576 54.0796 47.8C53.9196 48.216 53.5996 48.52 53.1196 48.712C52.6396 48.904 51.9036 49 50.9116 49H39.9676C39.1356 49 38.5276 48.872 38.1436 48.616C37.7596 48.328 37.6316 47.96 37.7596 47.512C37.8876 47.128 38.2236 46.792 38.7676 46.504C39.2476 46.248 39.6476 45.944 39.9676 45.592C40.2876 45.24 40.5596 44.68 40.7836 43.912L44.9596 30.04C45.0556 29.752 45.1036 29.512 45.1036 29.32C45.1036 28.968 45.0236 28.696 44.8636 28.504C44.7036 28.28 44.4636 28.056 44.1436 27.832C43.8236 27.576 43.5996 27.352 43.4716 27.16C43.3436 26.968 43.3276 26.712 43.4236 26.392C43.6156 25.656 44.6236 25.016 46.4476 24.472C48.2716 23.896 50.1756 23.608 52.1596 23.608ZM55.3756 13C56.6236 13 57.6636 13.416 58.4956 14.248C59.3276 15.048 59.7436 16.04 59.7436 17.224C59.7436 18.056 59.5196 18.872 59.0716 19.672C58.6556 20.472 58.0476 21.128 57.2476 21.64C56.4796 22.12 55.6156 22.36 54.6556 22.36C53.4396 22.36 52.4156 21.96 51.5836 21.16C50.7836 20.328 50.3676 19.304 50.3356 18.088C50.3356 17.288 50.5436 16.504 50.9596 15.736C51.3756 14.936 51.9676 14.28 52.7356 13.768C53.5036 13.256 54.3836 13 55.3756 13ZM103.242 42.376C103.178 42.504 103.146 42.696 103.146 42.952C103.146 43.176 103.194 43.352 103.29 43.48C103.418 43.608 103.578 43.672 103.77 43.672C104.154 43.672 104.474 43.512 104.73 43.192C105.018 42.84 105.21 42.664 105.306 42.664C105.466 42.664 105.594 42.776 105.69 43C105.786 43.192 105.834 43.432 105.834 43.72C105.866 44.648 105.562 45.56 104.922 46.456C104.282 47.32 103.338 48.04 102.09 48.616C100.874 49.16 99.4018 49.432 97.6738 49.432C95.5618 49.432 93.8818 48.952 92.6338 47.992C91.3858 47 90.7458 45.688 90.7138 44.056C90.7138 42.872 91.0018 41.544 91.5778 40.072L94.2178 33.16C94.3778 32.744 94.4578 32.408 94.4578 32.152C94.4578 31.736 94.3138 31.416 94.0258 31.192C93.7698 30.936 93.4498 30.808 93.0658 30.808C92.5218 30.808 91.9618 31.048 91.3858 31.528C90.8098 32.008 90.2978 32.76 89.8498 33.784L87.2098 42.376C87.1458 42.504 87.1138 42.696 87.1138 42.952C87.1138 43.176 87.1618 43.352 87.2578 43.48C87.3858 43.608 87.5458 43.672 87.7378 43.672C88.1218 43.672 88.4418 43.512 88.6978 43.192C88.9858 42.84 89.1778 42.664 89.2738 42.664C89.4338 42.664 89.5618 42.776 89.6578 43C89.7538 43.192 89.8018 43.432 89.8018 43.72C89.8338 44.648 89.5298 45.56 88.8898 46.456C88.2498 47.32 87.3058 48.04 86.0578 48.616C84.8418 49.16 83.3698 49.432 81.6418 49.432C79.5298 49.432 77.8498 48.952 76.6018 47.992C75.3538 47 74.7138 45.688 74.6818 44.056C74.6818 42.872 74.9698 41.544 75.5458 40.072L78.1858 33.16C78.3458 32.744 78.4258 32.408 78.4258 32.152C78.4258 31.736 78.2818 31.416 77.9938 31.192C77.7378 30.936 77.4178 30.808 77.0338 30.808C76.4898 30.808 75.9298 31.048 75.3538 31.528C74.7778 31.976 74.2978 32.712 73.9138 33.736L70.7458 44.008C70.6178 44.36 70.5538 44.696 70.5538 45.016C70.5538 45.4 70.6338 45.72 70.7938 45.976C70.9538 46.2 71.1778 46.44 71.4658 46.696C71.6898 46.888 71.8498 47.064 71.9458 47.224C72.0418 47.384 72.0578 47.576 71.9938 47.8C71.8658 48.216 71.5618 48.52 71.0818 48.712C70.6018 48.904 69.8498 49 68.8258 49H57.8818C57.0497 49 56.4577 48.872 56.1057 48.616C55.7217 48.328 55.5777 47.96 55.6737 47.512C55.8017 47.128 56.1377 46.792 56.6817 46.504C57.1617 46.248 57.5617 45.944 57.8818 45.592C58.2018 45.24 58.4738 44.68 58.6978 43.912L62.9698 30.04C63.0338 29.88 63.0658 29.656 63.0658 29.368C63.0658 29.016 62.9858 28.744 62.8258 28.552C62.6978 28.36 62.4738 28.12 62.1538 27.832C61.8338 27.576 61.6098 27.352 61.4818 27.16C61.3538 26.968 61.3378 26.712 61.4338 26.392C61.6258 25.656 62.6338 25.016 64.4578 24.472C66.2818 23.896 68.1858 23.608 70.1698 23.608C71.7378 23.608 72.9698 24.04 73.8658 24.904C74.7938 25.768 75.2418 26.952 75.2098 28.456C76.5218 26.632 77.8978 25.368 79.3378 24.664C80.8098 23.96 82.3938 23.608 84.0898 23.608C85.9458 23.608 87.4498 24.152 88.6018 25.24C89.7858 26.296 90.4418 27.688 90.5698 29.416C91.9458 27.24 93.4178 25.736 94.9858 24.904C96.5538 24.04 98.2658 23.608 100.122 23.608C102.074 23.608 103.642 24.2 104.826 25.384C106.042 26.568 106.65 28.104 106.65 29.992C106.65 30.984 106.49 31.96 106.17 32.92L103.242 42.376ZM154.019 42.376C153.955 42.504 153.923 42.696 153.923 42.952C153.923 43.176 153.971 43.352 154.067 43.48C154.195 43.608 154.355 43.672 154.547 43.672C154.931 43.672 155.251 43.512 155.507 43.192C155.795 42.84 155.987 42.664 156.083 42.664C156.243 42.664 156.371 42.776 156.467 43C156.563 43.192 156.611 43.432 156.611 43.72C156.643 44.648 156.339 45.56 155.699 46.456C155.059 47.32 154.115 48.04 152.867 48.616C151.651 49.16 150.179 49.432 148.451 49.432C146.339 49.432 144.659 48.952 143.411 47.992C142.163 47 141.523 45.688 141.491 44.056C141.491 42.872 141.779 41.544 142.355 40.072L144.995 33.16C145.155 32.744 145.235 32.408 145.235 32.152C145.235 31.736 145.091 31.416 144.803 31.192C144.547 30.936 144.227 30.808 143.843 30.808C143.299 30.808 142.739 31.048 142.163 31.528C141.587 32.008 141.075 32.76 140.627 33.784L137.987 42.376C137.923 42.504 137.891 42.696 137.891 42.952C137.891 43.176 137.939 43.352 138.035 43.48C138.163 43.608 138.323 43.672 138.515 43.672C138.899 43.672 139.219 43.512 139.475 43.192C139.763 42.84 139.955 42.664 140.051 42.664C140.211 42.664 140.339 42.776 140.435 43C140.531 43.192 140.579 43.432 140.579 43.72C140.611 44.648 140.307 45.56 139.667 46.456C139.027 47.32 138.083 48.04 136.835 48.616C135.619 49.16 134.147 49.432 132.419 49.432C130.307 49.432 128.627 48.952 127.379 47.992C126.131 47 125.491 45.688 125.459 44.056C125.459 42.872 125.747 41.544 126.323 40.072L128.963 33.16C129.123 32.744 129.203 32.408 129.203 32.152C129.203 31.736 129.059 31.416 128.771 31.192C128.515 30.936 128.195 30.808 127.811 30.808C127.267 30.808 126.707 31.048 126.131 31.528C125.555 31.976 125.075 32.712 124.691 33.736L121.523 44.008C121.395 44.36 121.331 44.696 121.331 45.016C121.331 45.4 121.411 45.72 121.571 45.976C121.731 46.2 121.955 46.44 122.243 46.696C122.467 46.888 122.627 47.064 122.723 47.224C122.819 47.384 122.835 47.576 122.771 47.8C122.643 48.216 122.339 48.52 121.859 48.712C121.379 48.904 120.627 49 119.603 49H108.659C107.827 49 107.235 48.872 106.883 48.616C106.499 48.328 106.355 47.96 106.451 47.512C106.579 47.128 106.915 46.792 107.459 46.504C107.939 46.248 108.339 45.944 108.659 45.592C108.979 45.24 109.251 44.68 109.475 43.912L113.747 30.04C113.811 29.88 113.843 29.656 113.843 29.368C113.843 29.016 113.763 28.744 113.603 28.552C113.475 28.36 113.251 28.12 112.931 27.832C112.611 27.576 112.387 27.352 112.259 27.16C112.131 26.968 112.115 26.712 112.211 26.392C112.403 25.656 113.411 25.016 115.235 24.472C117.059 23.896 118.963 23.608 120.947 23.608C122.515 23.608 123.747 24.04 124.643 24.904C125.571 25.768 126.019 26.952 125.987 28.456C127.299 26.632 128.675 25.368 130.115 24.664C131.587 23.96 133.171 23.608 134.867 23.608C136.723 23.608 138.227 24.152 139.379 25.24C140.563 26.296 141.219 27.688 141.347 29.416C142.723 27.24 144.195 25.736 145.763 24.904C147.331 24.04 149.043 23.608 150.899 23.608C152.851 23.608 154.419 24.2 155.603 25.384C156.819 26.568 157.427 28.104 157.427 29.992C157.427 30.984 157.267 31.96 156.947 32.92L154.019 42.376ZM171.771 23.608C173.627 23.608 174.987 23.96 175.851 24.664C176.715 25.368 177.147 26.328 177.147 27.544C177.147 28.28 177.035 28.984 176.811 29.656L172.395 44.008C172.299 44.392 172.251 44.728 172.251 45.016C172.251 45.432 172.331 45.768 172.491 46.024C172.651 46.248 172.875 46.472 173.163 46.696C173.387 46.92 173.547 47.112 173.643 47.272C173.739 47.4 173.755 47.576 173.691 47.8C173.531 48.216 173.211 48.52 172.731 48.712C172.251 48.904 171.515 49 170.523 49H159.579C158.747 49 158.139 48.872 157.755 48.616C157.371 48.328 157.243 47.96 157.371 47.512C157.499 47.128 157.835 46.792 158.379 46.504C158.859 46.248 159.259 45.944 159.579 45.592C159.899 45.24 160.171 44.68 160.395 43.912L164.571 30.04C164.667 29.752 164.715 29.512 164.715 29.32C164.715 28.968 164.635 28.696 164.475 28.504C164.315 28.28 164.075 28.056 163.755 27.832C163.435 27.576 163.211 27.352 163.083 27.16C162.955 26.968 162.939 26.712 163.035 26.392C163.227 25.656 164.235 25.016 166.059 24.472C167.883 23.896 169.787 23.608 171.771 23.608ZM174.987 13C176.235 13 177.275 13.416 178.107 14.248C178.939 15.048 179.355 16.04 179.355 17.224C179.355 18.056 179.131 18.872 178.683 19.672C178.267 20.472 177.659 21.128 176.859 21.64C176.091 22.12 175.227 22.36 174.267 22.36C173.051 22.36 172.027 21.96 171.195 21.16C170.395 20.328 169.979 19.304 169.947 18.088C169.947 17.288 170.155 16.504 170.571 15.736C170.987 14.936 171.579 14.28 172.347 13.768C173.115 13.256 173.995 13 174.987 13Z" fill="#3E64FF"/>
<path d="M187.462 32.7227H191.495C193.389 32.7227 194.76 33.0059 195.606 33.5723C196.453 34.1387 196.876 35.0339 196.876 36.2578C196.876 37.1042 196.638 37.804 196.163 38.3574C195.694 38.9043 195.007 39.2591 194.102 39.4219V39.5195C196.27 39.8906 197.354 41.0299 197.354 42.9375C197.354 44.2135 196.921 45.2096 196.055 45.9258C195.196 46.6419 193.992 47 192.442 47H187.462V32.7227ZM189.122 38.8359H191.856C193.028 38.8359 193.871 38.6536 194.386 38.2891C194.9 37.918 195.157 37.2962 195.157 36.4238C195.157 35.623 194.871 35.0469 194.298 34.6953C193.725 34.3372 192.813 34.1582 191.563 34.1582H189.122V38.8359ZM189.122 40.2422V45.584H192.1C193.253 45.584 194.119 45.3626 194.698 44.9199C195.284 44.4707 195.577 43.7708 195.577 42.8203C195.577 41.9349 195.277 41.2839 194.679 40.8672C194.086 40.4505 193.181 40.2422 191.964 40.2422H189.122ZM204.908 47.1953C203.326 47.1953 202.076 46.7135 201.158 45.75C200.246 44.7865 199.791 43.4486 199.791 41.7363C199.791 40.0111 200.214 38.6406 201.06 37.625C201.913 36.6094 203.056 36.1016 204.488 36.1016C205.829 36.1016 206.89 36.5443 207.671 37.4297C208.453 38.3086 208.843 39.4707 208.843 40.916V41.9414H201.47C201.503 43.1979 201.819 44.1517 202.418 44.8027C203.023 45.4538 203.873 45.7793 204.966 45.7793C206.119 45.7793 207.258 45.5384 208.384 45.0566V46.502C207.811 46.7493 207.268 46.9251 206.754 47.0293C206.246 47.14 205.63 47.1953 204.908 47.1953ZM204.468 37.459C203.609 37.459 202.922 37.7389 202.408 38.2988C201.9 38.8587 201.601 39.6335 201.509 40.623H207.105C207.105 39.6009 206.877 38.8197 206.421 38.2793C205.966 37.7324 205.315 37.459 204.468 37.459ZM215.274 45.8574C215.56 45.8574 215.837 45.8379 216.104 45.7988C216.371 45.7533 216.582 45.7077 216.739 45.6621V46.9023C216.563 46.987 216.302 47.0553 215.957 47.1074C215.619 47.166 215.313 47.1953 215.039 47.1953C212.969 47.1953 211.934 46.1048 211.934 43.9238V37.5566H210.401V36.7754L211.934 36.1016L212.618 33.8164H213.555V36.2969H216.661V37.5566H213.555V43.8555C213.555 44.5 213.708 44.9948 214.014 45.3398C214.32 45.6849 214.74 45.8574 215.274 45.8574ZM225.669 47L225.347 45.4766H225.269C224.735 46.1471 224.201 46.6029 223.667 46.8438C223.14 47.0781 222.479 47.1953 221.685 47.1953C220.624 47.1953 219.79 46.9219 219.185 46.375C218.586 45.8281 218.286 45.0501 218.286 44.041C218.286 41.8796 220.015 40.7467 223.472 40.6426L225.288 40.584V39.9199C225.288 39.0801 225.106 38.4616 224.741 38.0645C224.383 37.6608 223.807 37.459 223.013 37.459C222.121 37.459 221.112 37.7324 219.986 38.2793L219.488 37.0391C220.015 36.7526 220.591 36.528 221.216 36.3652C221.848 36.2025 222.479 36.1211 223.111 36.1211C224.387 36.1211 225.331 36.4043 225.943 36.9707C226.561 37.5371 226.87 38.4453 226.87 39.6953V47H225.669ZM222.007 45.8574C223.016 45.8574 223.807 45.5807 224.38 45.0273C224.96 44.474 225.249 43.6992 225.249 42.7031V41.7363L223.628 41.8047C222.339 41.8503 221.408 42.0521 220.835 42.4102C220.269 42.7617 219.986 43.3118 219.986 44.0605C219.986 44.6465 220.161 45.0924 220.513 45.3984C220.871 45.7044 221.369 45.8574 222.007 45.8574Z" fill="#333333"/>
</svg>

